<svg xmlns="http://www.w3.org/2000/svg" viewBox="0 0 330 110" width="330" height="110">
	<style>
		tspan { white-space:pre }
	</style>
	<path id="Brand " fill="#3e3e3e" d="M34.84 101.75Q28.11 101.75 21.38 101.39Q14.77 100.92 7.57 99.38L7.57 20.05Q13.24 18.99 19.97 18.51Q26.69 17.92 32.48 17.92Q40.27 17.92 46.76 19.1Q53.38 20.17 58.1 22.88Q62.82 25.6 65.42 30.08Q68.13 34.45 68.13 40.95Q68.13 50.74 58.69 56.41Q66.48 59.36 69.31 64.44Q72.15 69.52 72.15 75.89Q72.15 88.76 62.7 95.25Q53.38 101.75 34.84 101.75ZM37.08 65.03L25.51 65.03L25.51 86.16Q27.52 86.4 29.88 86.52Q32.24 86.63 35.08 86.63Q43.34 86.63 48.42 84.27Q53.49 81.91 53.49 75.54Q53.49 69.87 49.24 67.51Q44.99 65.03 37.08 65.03ZM25.51 33.15L25.51 50.98L34.49 50.98Q42.99 50.98 46.65 48.86Q50.31 46.61 50.31 41.77Q50.31 36.81 46.53 34.81Q42.75 32.8 35.43 32.8Q33.07 32.8 30.35 32.92Q27.64 32.92 25.51 33.15ZM126.1 39.65L123.15 54.17Q120.79 53.58 117.6 52.99Q114.41 52.28 110.75 52.28Q109.1 52.28 106.74 52.63Q104.5 52.87 103.31 53.22L103.31 100.68L85.72 100.68L85.72 41.89Q90.45 40.24 96.82 38.82Q103.31 37.29 111.22 37.29Q112.64 37.29 114.65 37.52Q116.66 37.64 118.66 37.99Q120.67 38.23 122.68 38.7Q124.68 39.06 126.1 39.65ZM158.09 88.4Q160.69 88.4 163.05 88.29Q165.41 88.17 166.83 87.93L166.83 74.59Q165.77 74.36 163.64 74.12Q161.52 73.88 159.75 73.88Q157.27 73.88 155.02 74.24Q152.9 74.47 151.25 75.3Q149.59 76.13 148.65 77.54Q147.7 78.96 147.7 81.09Q147.7 85.22 150.42 86.87Q153.25 88.4 158.09 88.4ZM156.68 36.93Q164.47 36.93 169.66 38.7Q174.86 40.47 177.93 43.78Q181.12 47.08 182.41 51.81Q183.71 56.53 183.71 62.31L183.71 98.91Q179.93 99.74 173.21 100.92Q166.48 101.98 156.91 101.98Q150.89 101.98 145.93 100.92Q141.09 99.86 137.55 97.5Q134.01 95.02 132.12 91.12Q130.23 87.22 130.23 81.56Q130.23 76.13 132.36 72.35Q134.6 68.57 138.26 66.33Q141.92 64.08 146.64 63.14Q151.36 62.08 156.44 62.08Q159.86 62.08 162.46 62.43Q165.18 62.67 166.83 63.14L166.83 61.49Q166.83 57 164.12 54.29Q161.4 51.57 154.67 51.57Q150.18 51.57 145.82 52.28Q141.45 52.87 138.26 54.05L136.02 39.88Q137.55 39.41 139.79 38.94Q142.16 38.35 144.87 37.99Q147.59 37.52 150.54 37.29Q153.61 36.93 156.68 36.93ZM199.65 100.68L199.65 40.71Q204.14 39.41 211.22 38.35Q218.3 37.17 226.1 37.17Q234.01 37.17 239.2 39.29Q244.51 41.3 247.58 45.08Q250.65 48.86 251.95 54.05Q253.25 59.24 253.25 65.62L253.25 100.68L235.66 100.68L235.66 67.74Q235.66 59.24 233.42 55.7Q231.17 52.16 225.03 52.16Q223.14 52.16 221.02 52.4Q218.89 52.52 217.24 52.75L217.24 100.68L199.65 100.68ZM284.18 69.16Q284.18 77.31 287.84 82.27Q291.5 87.22 298.7 87.22Q301.06 87.22 303.07 87.11Q305.08 86.87 306.38 86.63L306.38 54.64Q304.72 53.58 302.01 52.87Q299.41 52.16 296.7 52.16Q284.18 52.16 284.18 69.16ZM323.97 9.07L323.97 98.68Q321.61 99.38 318.54 100.09Q315.47 100.68 312.04 101.16Q308.74 101.63 305.2 101.98Q301.77 102.22 298.58 102.22Q290.91 102.22 284.89 99.97Q278.87 97.73 274.74 93.6Q270.6 89.35 268.36 83.45Q266.24 77.43 266.24 69.99Q266.24 62.43 268.12 56.41Q270.01 50.27 273.56 46.02Q277.1 41.77 282.17 39.53Q287.37 37.29 293.98 37.29Q297.64 37.29 300.47 37.99Q303.42 38.7 306.38 40L306.38 11.9L323.97 9.07Z" />
</svg>